<svg width="1442" height="491" viewBox="0 0 1442 491" fill="none" xmlns="http://www.w3.org/2000/svg">
<g opacity="0.4">
<path d="M1 441L10.0049 423.813C12.1434 419.731 18.1963 420.47 19.2907 424.946L20.0964 428.241C21.1879 432.705 27.2171 433.457 29.3705 429.397L32.9314 422.683C33.1849 422.205 33.3591 421.689 33.4474 421.156L43.6529 359.395C44.1673 356.281 48.4343 355.781 49.6555 358.69L50.4797 360.654C51.4788 363.034 54.9759 362.594 55.3542 360.04V360.04C55.7544 357.339 59.5465 357.071 60.3223 359.69L62.8865 368.344C63.0304 368.829 63.2543 369.287 63.549 369.699L67.5479 375.283C68.2445 376.256 69.3677 376.833 70.5643 376.833V376.833C72.1435 376.833 73.5497 375.834 74.0684 374.342L80.4674 355.944C81.0393 354.299 83.1996 353.931 84.2835 355.294V355.294C85.3784 356.67 87.5638 356.278 88.1122 354.607L89.3193 350.929C90.4888 347.365 95.3423 346.905 97.1607 350.185L104.076 362.659C104.36 363.173 104.553 363.733 104.643 364.314L108.34 388.062C108.889 391.593 113.009 393.259 115.859 391.103V391.103C118.59 389.037 122.543 390.472 123.314 393.808L124.974 400.994C125.633 403.85 129.39 404.527 131.006 402.083V402.083C131.997 400.584 133.995 400.139 135.528 401.076L139.029 403.215C140.198 403.929 141.023 405.092 141.31 406.431L142.261 410.857C143.024 414.409 147.201 415.987 150.122 413.828L150.831 413.304C151.883 412.526 152.589 411.366 152.795 410.073L160.268 363.389C160.764 360.286 165.044 359.832 166.18 362.762L166.553 363.722C167.363 365.812 170.258 365.977 171.3 363.992V363.992C172.375 361.944 175.384 362.201 176.097 364.4L181.448 380.905C182.953 385.543 189.529 385.505 190.979 380.849L195.84 365.234C196.201 364.075 196.971 363.087 198.007 362.454L202.688 359.594C203.833 358.894 204.649 357.763 204.952 356.456L208.854 339.614C209.367 337.396 212.118 336.607 213.73 338.214V338.214C215.269 339.749 217.886 339.111 218.545 337.04L224.918 317.015C225.839 314.119 229.699 313.569 231.392 316.093V316.093C232.922 318.371 236.329 318.194 237.615 315.77L240.219 310.861C242.143 307.233 247.379 307.343 249.148 311.05L251.535 316.05C251.801 316.607 252.196 317.092 252.687 317.466V317.466C254.936 319.179 258.203 317.992 258.827 315.234L263.429 294.879C263.511 294.516 263.634 294.164 263.794 293.828L268.398 284.183C268.534 283.899 268.642 283.603 268.722 283.299L273.863 263.717C274.056 262.984 274.413 262.304 274.907 261.728L279.769 256.07C281.651 253.879 284.992 253.734 287.057 255.753L287.382 256.071C287.98 256.655 288.422 257.38 288.667 258.179L291.8 268.388C292.273 269.931 294.212 270.425 295.366 269.297V269.297C296.518 268.171 298.453 268.661 298.931 270.199L304.159 287.049C304.351 287.669 304.662 288.245 305.075 288.746L308.663 293.103C311.455 296.494 316.949 294.895 317.485 290.535L320.825 263.398C321.225 260.145 324.596 258.15 327.641 259.365L331.548 260.924C333.935 261.877 336.656 260.864 337.84 258.582L342.738 249.134C344.423 245.884 348.915 245.488 351.144 248.392L353.333 251.246C353.728 251.761 354.019 252.348 354.19 252.974L356.996 263.261C357.451 264.93 359.483 265.566 360.809 264.455V264.455C361.954 263.495 363.69 263.82 364.411 265.129L366.643 269.182C367.523 270.778 369.201 271.769 371.023 271.769H371.295C373.788 271.769 375.9 269.933 376.247 267.464L380.508 237.111C380.628 236.257 380.968 235.448 381.493 234.763L386.764 227.892C387.71 226.659 389.177 225.936 390.731 225.936H392.404C394.214 225.936 395.882 226.913 396.766 228.492L404.422 242.154V242.154C406.345 246.182 412.363 245.049 412.689 240.597L415.696 199.545C415.887 196.932 418.063 194.91 420.682 194.91H421.55C423.385 194.91 425.017 196.078 425.609 197.815V197.815C426.929 201.687 432.406 201.687 433.726 197.815V197.815C434.319 196.078 435.95 194.91 437.785 194.91H438.284C439.852 194.91 441.33 195.649 442.271 196.904L449.414 206.425C450.849 208.338 453.437 208.967 455.59 207.926L462.785 204.448C464.188 203.77 465.195 202.476 465.507 200.949L468.233 187.626C468.709 185.299 470.756 183.628 473.131 183.628H475.263C477.044 183.628 478.69 184.575 479.585 186.114L484.29 194.201C484.563 194.671 484.758 195.182 484.867 195.714L486.376 203.087C487.05 206.382 490.72 208.085 493.672 206.472L497.555 204.35C498.703 203.723 499.559 202.671 499.94 201.421L509.944 168.621C510.546 166.645 512.37 165.295 514.436 165.295V165.295C516.555 165.295 518.412 163.875 518.968 161.829L523.413 145.465C523.524 145.054 523.688 144.659 523.899 144.29L525.11 142.176C527.072 138.752 532.041 138.843 533.876 142.337L534.671 143.85C535.015 144.506 535.501 145.077 536.092 145.522L540.705 148.99C541.39 149.506 541.9 150.219 542.165 151.034V151.034C543.473 155.054 549.243 154.805 550.199 150.687L552.454 140.977C552.72 139.832 553.38 138.818 554.319 138.112L558.059 135.3C558.947 134.632 559.587 133.687 559.879 132.614L563.632 118.794C564.252 116.512 567.059 115.684 568.818 117.264V117.264C570.418 118.7 572.953 118.165 573.836 116.204L580.127 102.226C581.383 99.4342 585.282 99.2595 586.784 101.928L587.013 102.336C587.938 103.979 590.078 104.493 591.669 103.483V103.483C593.114 102.566 595.047 102.922 596.044 104.313V104.313C597.68 106.598 601.252 105.844 601.824 103.092L603.782 93.6728C604.371 90.8394 607.235 89.0963 610.023 89.8748L610.706 90.0656C611.812 90.3746 612.735 91.1404 613.242 92.1711V92.1711C614.89 95.5186 619.808 95.0314 620.767 91.4256L624.239 78.3687C624.451 77.5712 624.858 76.8386 625.422 76.2363L632.336 68.8524C632.853 68.3004 633.575 67.9872 634.331 67.9872V67.9872C635.682 67.9872 636.831 67.0005 637.034 65.6651L639.716 48.0618C640.412 43.4903 646.408 42.2329 648.883 46.1393L651.588 50.4101C652.591 51.994 654.614 52.5873 656.314 51.796V51.796C658.063 50.982 660.144 51.635 661.113 53.3021L665.689 61.1663C665.872 61.4818 666.021 61.8165 666.132 62.1644L669.52 72.8126C669.835 73.8018 670.45 74.6686 671.28 75.2925L671.635 75.5594C674.176 77.4701 677.831 76.5553 679.173 73.673L682.881 65.7051C683.048 65.3474 683.256 65.0107 683.502 64.7019L686.68 60.7075C687.628 59.5152 689.069 58.8205 690.592 58.8205H690.675C693.045 58.8205 695.09 57.1563 695.571 54.8353L699.506 35.8529C699.911 33.8984 702.033 32.8328 703.842 33.6752V33.6752C705.274 34.3415 706.977 33.8235 707.796 32.4731L708.263 31.7017C709.892 29.0135 713.815 29.0816 715.349 31.8247L720.867 41.6871C722.61 44.8038 726.965 45.1405 729.167 42.3289L738.862 29.9498C740.393 27.9953 743.447 28.3463 744.495 30.5971V30.5971C745.85 33.5085 750.136 32.9985 750.77 29.8503L752.878 19.3855C753.156 18.005 754.003 16.8057 755.212 16.0824L756.431 15.3524C758.664 14.0159 761.549 14.6158 763.064 16.7317L765.015 19.4565C765.292 19.8425 765.512 20.2659 765.669 20.714L776.826 52.5557C776.972 52.9698 777.062 53.4011 777.094 53.8387L782.562 127.429C782.587 127.758 782.643 128.083 782.732 128.4L788.199 148.034C788.752 150.021 791.416 150.378 792.473 148.607V148.607C793.432 146.999 795.797 147.108 796.603 148.798L799.878 155.659C800.453 156.862 801.484 157.786 802.742 158.225L811.842 161.402C813.502 161.982 815.306 161.033 815.769 159.336V159.336C816.6 156.291 820.949 156.38 821.654 159.457L822.593 163.554C822.847 164.664 823.553 165.618 824.54 166.185L829.797 169.208C830.937 169.863 831.772 170.941 832.123 172.207L835.887 185.788C836.693 188.695 840.267 189.75 842.522 187.746V187.746C842.961 187.356 843.31 186.875 843.546 186.338L852.636 165.627C852.733 165.406 852.814 165.178 852.878 164.945L855.071 156.981C856.331 152.407 862.922 152.732 863.725 157.407V157.407C864.486 161.833 870.585 162.46 872.23 158.282L877.349 145.285C877.464 144.993 877.551 144.691 877.61 144.383L888.364 87.57C888.811 85.2091 890.874 83.5 893.277 83.5H893.492C895.451 83.5 897.23 82.3559 898.042 80.5733L903.076 69.5252C903.503 68.5884 904.438 67.9872 905.467 67.9872V67.9872C906.805 67.9872 907.929 68.9923 908.078 70.3216L917.227 151.848C917.687 155.942 922.78 157.556 925.513 154.473V154.473C928.061 151.599 932.788 152.774 933.694 156.505L939.39 179.951C940.165 183.14 944.11 184.283 946.47 182.001V182.001C947.261 181.236 948.32 180.808 949.422 180.808H950.826C953.14 180.808 955.152 179.22 955.689 176.969L960.07 158.614C960.239 157.909 960.587 157.26 961.08 156.729V156.729C963.453 154.18 967.719 155.464 968.291 158.899L971.79 179.905C971.889 180.502 972.096 181.076 972.4 181.598L974.789 185.705C976.568 188.763 980.873 189.056 983.051 186.268L983.396 185.827C986.108 182.355 991.661 183.834 992.286 188.196L994.515 203.767C994.611 204.437 994.842 205.08 995.194 205.658L1000.65 214.618C1002.08 216.975 1005.15 217.724 1007.51 216.292L1013.21 212.833C1014.27 212.189 1015.05 211.176 1015.41 209.988L1018.02 201.23C1018.73 198.863 1021.93 198.506 1023.14 200.658V200.658C1024.18 202.513 1026.83 202.569 1027.96 200.761L1038.1 184.416C1038.42 183.895 1038.65 183.319 1038.76 182.717L1042.43 163.481C1042.56 162.817 1042.82 162.185 1043.2 161.624L1048.49 153.773C1049.59 152.149 1051.95 152.061 1053.16 153.6V153.6C1054.54 155.349 1057.29 154.949 1058.11 152.88L1060.93 145.807C1061.18 145.173 1061.56 144.598 1062.04 144.116L1062.42 143.742C1065.1 141.062 1069.68 142.235 1070.74 145.877L1071.91 149.858C1072.51 151.903 1074.39 153.308 1076.52 153.308V153.308C1078.34 153.308 1080 154.336 1080.81 155.964L1090.38 175.143C1090.82 176.022 1091.72 176.577 1092.7 176.577V176.577C1093.85 176.577 1094.86 177.33 1095.18 178.428L1100.39 195.875C1101.32 198.976 1104.9 200.395 1107.7 198.767L1108.82 198.115C1111.62 196.484 1115.21 197.912 1116.13 201.023L1121.39 218.885L1124.22 236.892C1124.81 240.628 1129.73 241.612 1131.71 238.388V238.388C1131.9 238.08 1132.05 237.747 1132.15 237.399L1136.55 222.321C1137.14 220.285 1139.01 218.885 1141.13 218.885V218.885C1143.44 218.885 1145.42 217.228 1145.83 214.953L1153.98 169.405C1154.31 167.56 1156.5 166.748 1157.95 167.932V167.932C1159.3 169.032 1161.34 168.418 1161.85 166.754L1173.63 128.808C1173.81 128.223 1174.1 127.676 1174.48 127.196L1178.05 122.659C1178.83 121.67 1180.26 121.495 1181.25 122.266V122.266C1182.55 123.275 1184.46 122.626 1184.88 121.033L1190.54 99.2796C1191.04 97.3507 1193.7 97.1496 1194.49 98.9809V98.9809C1195.24 100.738 1197.77 100.646 1198.39 98.8386L1203.24 84.8091C1203.54 83.9525 1204.06 83.1925 1204.75 82.6104L1208.07 79.8311C1208.52 79.4593 1208.89 79.0134 1209.18 78.5131L1214.11 70.035C1214.85 68.7671 1216.21 67.9872 1217.68 67.9872V67.9872C1219.3 67.9872 1220.78 67.0268 1221.44 65.5372L1224.87 57.8011C1225.87 55.5382 1228.81 54.9376 1230.62 56.6243V56.6243C1231.96 57.8748 1234.03 57.9159 1235.42 56.7198L1235.57 56.5943C1237.53 54.9067 1240.57 55.6216 1241.58 58.0078L1243.3 62.1076C1244.08 63.9613 1245.9 65.1667 1247.91 65.1667H1248.42C1249.54 65.1667 1250.62 64.7905 1251.5 64.0985L1254.92 61.4169C1256.45 60.2148 1258.71 61.0247 1259.13 62.925V62.925C1259.59 65.0321 1262.25 65.7229 1263.68 64.1085L1269.93 57.0656C1271.46 55.3317 1274.3 55.9018 1275.05 58.095V58.095C1276.02 60.9621 1280.14 60.7678 1280.85 57.8214L1284.75 41.4656C1285.22 39.5003 1287.81 39.0514 1288.91 40.7448V40.7448C1289.87 42.2128 1292.05 42.1166 1292.87 40.5702L1300.04 27.0909C1301.52 24.3149 1305.63 24.7828 1306.45 27.8195V27.8195C1307.26 30.8497 1311.36 31.3244 1312.85 28.5602L1317.51 19.8866C1317.7 19.5192 1317.85 19.1286 1317.95 18.7238L1321.41 4.79713C1321.96 2.56652 1323.96 1 1326.26 1H1327.9H1330.15C1332.4 1 1334.37 2.50304 1334.97 4.67241L1337.34 13.2699C1337.91 15.3345 1340.74 15.5657 1341.64 13.6204V13.6204C1342.43 11.9039 1344.84 11.8232 1345.74 13.483L1351.78 24.5824C1352.62 26.1278 1354.24 27.0897 1356 27.0897V27.0897C1357.68 27.0897 1359.23 27.9637 1360.1 29.3957L1365.82 38.7919C1366.73 40.2825 1368.35 41.1923 1370.09 41.1923H1377.13C1377.89 41.1923 1378.58 40.7292 1378.87 40.0204V40.0204C1379.48 38.5342 1381.55 38.4393 1382.29 39.8635L1384.14 43.4116C1384.34 43.8092 1384.48 44.2407 1384.53 44.6857L1391.42 101.05C1391.49 101.569 1391.63 102.075 1391.85 102.549L1403.42 127.458C1403.56 127.767 1403.74 128.06 1403.95 128.33V128.33C1406.53 131.693 1411.9 130.135 1412.27 125.913L1413.86 108.192C1414.08 105.79 1416.09 103.949 1418.5 103.949V103.949C1419.95 103.949 1421.32 103.272 1422.2 102.118L1426.11 97.0008C1427.44 95.2626 1430.1 95.415 1431.22 97.2932L1432.84 100.007C1433.33 100.824 1434.52 100.813 1434.99 99.9881L1435.14 99.7261C1435.52 99.0627 1436.46 99.0152 1436.9 99.6369V99.6369C1437.22 100.081 1437.83 100.207 1438.3 99.9265L1441 98.3077" stroke="url(#paint0_linear_4557_151866)"/>
<path d="M1 490L10.1901 474.851C12.4561 471.116 18.0858 471.879 19.2759 476.083L20.1106 479.031C21.2971 483.222 26.9026 483.997 29.1821 480.286L32.8357 474.337C33.1521 473.822 33.3724 473.253 33.486 472.66L43.6169 419.711C44.197 416.679 48.3047 416.135 49.6541 418.911L50.5473 420.749C51.6312 422.979 54.9376 422.509 55.3568 420.065V420.065C55.8035 417.461 59.4276 417.169 60.285 419.668L62.8333 427.096C63.0121 427.617 63.2841 428.102 63.6358 428.526L67.4677 433.148C68.2216 434.057 69.3412 434.583 70.5223 434.583V434.583C72.1414 434.583 73.5981 433.6 74.203 432.098L80.4088 416.688C81.0479 415.101 83.123 414.721 84.2823 415.98V415.98C85.4552 417.253 87.5577 416.847 88.1726 415.229L89.3288 412.186C90.5951 408.854 95.1156 408.383 97.0413 411.383L103.97 422.177C104.324 422.729 104.566 423.345 104.683 423.991L108.217 443.6C108.852 447.123 112.886 448.85 115.883 446.892V446.892C118.732 445.03 122.578 446.492 123.457 449.78L124.903 455.185C125.646 457.963 129.254 458.679 131.002 456.395V456.395C132.029 455.053 133.875 454.648 135.371 455.437L138.881 457.289C140.14 457.954 141.056 459.123 141.4 460.504L142.21 463.761C143.035 467.079 146.872 468.608 149.753 466.769L150.643 466.2C151.81 465.455 152.616 464.259 152.868 462.897L160.234 423.154C160.795 420.127 164.923 419.632 166.184 422.44L166.525 423.199C167.417 425.183 170.168 425.354 171.298 423.496V423.496C172.469 421.57 175.344 421.84 176.136 423.95L181.525 438.304C183.16 442.658 189.333 442.617 190.91 438.242L195.743 424.835C196.165 423.663 197.011 422.69 198.113 422.109L202.548 419.769C203.779 419.119 204.683 417.986 205.044 416.642L208.764 402.773C209.351 400.584 212.024 399.761 213.741 401.24V401.24C215.367 402.641 217.892 401.988 218.634 399.974L224.831 383.158C225.863 380.357 229.571 379.782 231.403 382.139V382.139C233.033 384.236 236.256 384.059 237.647 381.795L240.383 377.34C242.387 374.076 247.167 374.185 249.02 377.538L251.456 381.945C251.774 382.52 252.227 383.009 252.775 383.37V383.37C255.093 384.895 258.222 383.694 258.924 381.011L263.394 363.938C263.499 363.537 263.654 363.149 263.855 362.786L268.347 354.66C268.516 354.353 268.653 354.03 268.755 353.695L273.794 337.12C274.031 336.338 274.457 335.627 275.033 335.048L279.994 330.061C281.831 328.216 284.775 328.088 286.764 329.767L287.26 330.185C287.937 330.757 288.449 331.497 288.746 332.332L291.729 340.727C292.265 342.236 294.143 342.744 295.367 341.711V341.711C296.587 340.68 298.461 341.183 299.001 342.687L304.093 356.858C304.328 357.514 304.699 358.113 305.18 358.618L308.949 362.571C311.831 365.593 316.928 363.96 317.518 359.826L320.763 337.052C321.206 333.943 324.372 332.007 327.342 333.03L331.924 334.61C334.157 335.379 336.624 334.481 337.84 332.456L342.854 324.105C344.591 321.212 348.637 320.835 350.879 323.358L353.223 325.997C353.69 326.523 354.041 327.141 354.253 327.812L356.907 336.217C357.431 337.874 359.423 338.532 360.831 337.514V337.514C362.018 336.654 363.684 336.972 364.473 338.208L366.595 341.535C367.513 342.975 369.102 343.846 370.81 343.846H371.39C373.841 343.846 375.931 342.068 376.325 339.649L380.459 314.221C380.611 313.285 381.026 312.412 381.656 311.703L386.773 305.942C387.722 304.874 389.083 304.263 390.511 304.263H392.618C394.312 304.263 395.89 305.12 396.812 306.541L404.422 318.269V318.269C406.544 322.108 412.355 320.868 412.726 316.498L415.647 282.045C415.866 279.457 418.031 277.468 420.629 277.468H421.707C423.464 277.468 425.042 278.542 425.688 280.176V280.176C427.113 283.786 432.222 283.786 433.648 280.176V280.176C434.293 278.542 435.871 277.468 437.628 277.468H438.496C439.944 277.468 441.321 278.096 442.271 279.189L449.515 287.53C450.929 289.157 453.227 289.696 455.216 288.865L462.66 285.757C464.137 285.141 465.23 283.854 465.599 282.296L468.139 271.572C468.673 269.317 470.687 267.724 473.004 267.724H475.478C477.142 267.724 478.696 268.551 479.625 269.931L484.194 276.713C484.53 277.212 484.774 277.768 484.913 278.354L486.31 284.255C487.043 287.347 490.436 288.98 493.31 287.624L497.459 285.666C498.666 285.096 499.595 284.068 500.04 282.809L509.803 255.163C510.495 253.202 512.348 251.891 514.428 251.891V251.891C516.57 251.891 518.464 250.501 519.106 248.458L523.369 234.905C523.509 234.458 523.712 234.032 523.972 233.642L525.289 231.655C527.314 228.602 531.825 228.691 533.728 231.821L534.601 233.256C534.991 233.898 535.52 234.443 536.15 234.852L540.609 237.748C541.355 238.232 541.927 238.942 542.24 239.775V239.775C543.669 243.565 549.117 243.298 550.169 239.387L552.368 231.21C552.688 230.018 553.438 228.987 554.473 228.315L557.922 226.075C558.896 225.442 559.62 224.49 559.968 223.382L563.519 212.09C564.229 209.834 566.97 208.976 568.839 210.426V210.426C570.512 211.723 572.952 211.189 573.931 209.311L580.11 197.455C581.474 194.838 585.152 194.66 586.762 197.133L586.885 197.321C587.917 198.905 589.994 199.426 591.652 198.518L591.834 198.418C593.247 197.643 595.011 197.98 596.04 199.22V199.22C597.808 201.352 601.251 200.554 601.899 197.861L603.7 190.376C604.347 187.691 607.049 186.038 609.734 186.686L610.727 186.925C611.823 187.19 612.761 187.895 613.32 188.875V188.875C615.093 191.986 619.725 191.476 620.779 188.054L624.165 177.058C624.425 176.214 624.905 175.454 625.554 174.855L632.32 168.614C632.851 168.124 633.547 167.853 634.269 167.853V167.853C635.664 167.853 636.857 166.851 637.099 165.478L639.696 150.757C640.461 146.423 646.049 145.12 648.652 148.669L651.451 152.485C652.564 154.003 654.563 154.573 656.309 153.871V153.871C658.113 153.146 660.177 153.78 661.263 155.392L665.628 161.872C665.852 162.204 666.035 162.562 666.173 162.937L669.43 171.774C669.803 172.786 670.493 173.651 671.398 174.238L672.017 174.641C674.468 176.232 677.756 175.392 679.142 172.82L682.834 165.97C683.032 165.603 683.275 165.261 683.558 164.954L686.696 161.548C687.642 160.521 688.976 159.936 690.373 159.936H690.803C693.115 159.936 695.125 158.351 695.665 156.103L699.394 140.564C699.871 138.578 702 137.479 703.895 138.241V138.241C705.337 138.821 706.989 138.331 707.882 137.058L708.293 136.472C710.023 134.006 713.699 134.074 715.337 136.602L721.001 145.346C722.785 148.101 726.696 148.418 728.901 145.986L738.966 134.887C740.547 133.143 743.378 133.488 744.494 135.56V135.56C745.984 138.325 750.104 137.775 750.817 134.716L752.79 126.253C753.123 124.828 754.063 123.619 755.364 122.947L756.807 122.201C758.895 121.122 761.452 121.642 762.952 123.451L764.939 125.847C765.266 126.242 765.53 126.684 765.723 127.159L776.761 154.365C776.949 154.828 777.067 155.318 777.11 155.816L782.55 219.05C782.583 219.426 782.657 219.797 782.773 220.156L788.15 236.831C788.771 238.756 791.329 239.134 792.479 237.47V237.47C793.508 235.98 795.745 236.091 796.621 237.676L799.791 243.411C800.422 244.553 801.475 245.403 802.724 245.78L812.053 248.593C813.638 249.071 815.314 248.186 815.813 246.606V246.606C816.726 243.716 820.848 243.812 821.625 246.742L822.522 250.121C822.821 251.246 823.589 252.188 824.631 252.705L829.684 255.215C830.893 255.815 831.808 256.879 832.22 258.165L835.789 269.283C836.688 272.084 840.09 273.147 842.423 271.356V271.356C842.927 270.97 843.337 270.476 843.625 269.91L852.598 252.252C852.72 252.012 852.822 251.762 852.904 251.506L855.114 244.575C856.511 240.195 862.824 240.549 863.721 245.059V245.059C864.565 249.298 870.345 249.969 872.138 246.037L877.301 234.715C877.448 234.393 877.56 234.057 877.636 233.711L888.273 185.179C888.776 182.885 890.809 181.25 893.157 181.25H893.693C895.548 181.25 897.25 180.224 898.115 178.583L903.01 169.307C903.482 168.412 904.41 167.853 905.421 167.853V167.853C906.791 167.853 907.948 168.869 908.125 170.228L917.137 239.586C917.666 243.653 922.61 245.373 925.548 242.511V242.511C928.253 239.875 932.792 241.093 933.815 244.729L939.265 264.103C940.146 267.233 943.96 268.415 946.456 266.331V266.331C947.262 265.657 948.28 265.288 949.33 265.288H950.967C953.216 265.288 955.188 263.788 955.787 261.62L960.002 246.367C960.214 245.599 960.636 244.905 961.22 244.363V244.363C963.69 242.072 967.717 243.389 968.355 246.698L971.747 264.287C971.874 264.948 972.134 265.576 972.509 266.134L974.934 269.733C976.749 272.427 980.61 272.703 982.789 270.294L983.675 269.315C986.481 266.212 991.631 267.723 992.315 271.851L994.474 284.866C994.597 285.608 994.886 286.313 995.319 286.928L1000.72 294.589C1002.16 296.64 1004.91 297.302 1007.13 296.137L1013.1 293.004C1014.23 292.413 1015.09 291.413 1015.5 290.209L1017.97 283.077C1018.76 280.793 1021.83 280.416 1023.14 282.44V282.44C1024.26 284.15 1026.74 284.207 1027.94 282.549L1037.99 268.559C1038.38 268.008 1038.66 267.383 1038.81 266.721L1042.38 250.56C1042.54 249.833 1042.86 249.15 1043.32 248.563L1048.47 241.961C1049.64 240.467 1051.87 240.381 1053.15 241.782V241.782C1054.63 243.4 1057.27 242.99 1058.19 241L1060.85 235.218C1061.15 234.567 1061.59 233.989 1062.13 233.522L1062.76 232.98C1065.45 230.666 1069.62 231.805 1070.76 235.162L1071.77 238.145C1072.46 240.173 1074.36 241.538 1076.51 241.538H1076.6C1078.39 241.538 1080.04 242.491 1080.93 244.037L1090.31 260.265C1090.8 261.113 1091.7 261.635 1092.68 261.635V261.635C1093.85 261.635 1094.89 262.376 1095.27 263.48L1100.34 278.157C1101.33 281.016 1104.61 282.35 1107.31 280.992L1109.2 280.043C1111.91 278.682 1115.2 280.026 1116.18 282.895L1121.27 297.82C1121.35 298.055 1121.42 298.296 1121.46 298.54L1124.17 313.452C1124.83 317.066 1129.51 318.108 1131.64 315.113V315.113C1131.88 314.783 1132.06 314.42 1132.19 314.037L1136.41 301.535C1137.09 299.526 1138.98 298.173 1141.1 298.173V298.173C1143.44 298.173 1145.46 296.527 1145.94 294.232L1153.91 255.788C1154.29 253.947 1156.43 253.099 1157.97 254.181V254.181C1159.38 255.174 1161.35 254.551 1161.93 252.927L1173.57 220.556C1173.79 219.935 1174.13 219.364 1174.58 218.877L1178.02 215.098C1178.85 214.194 1180.21 214.029 1181.22 214.71V214.71C1182.61 215.635 1184.49 214.961 1184.97 213.37L1190.52 194.959C1191.08 193.099 1193.63 192.883 1194.49 194.623V194.623C1195.32 196.282 1197.72 196.185 1198.4 194.465L1203.16 182.594C1203.51 181.716 1204.1 180.956 1204.87 180.401L1208.02 178.117C1208.5 177.772 1208.91 177.347 1209.24 176.86L1213.99 169.802C1214.81 168.583 1216.19 167.853 1217.66 167.853V167.853C1219.31 167.853 1220.83 166.926 1221.59 165.452L1224.74 159.308C1225.87 157.117 1228.72 156.51 1230.64 158.053V158.053C1232.02 159.162 1233.97 159.2 1235.39 158.145L1235.54 158.032C1237.62 156.489 1240.59 157.213 1241.72 159.539L1243.22 162.608C1244.06 164.327 1245.8 165.417 1247.71 165.417H1248.61C1249.61 165.417 1250.59 165.116 1251.42 164.554L1255.17 162.007C1256.66 160.999 1258.69 161.771 1259.14 163.51V163.51C1259.63 165.441 1262.03 166.116 1263.45 164.726L1270.08 158.273C1271.64 156.748 1274.26 157.308 1275.06 159.342V159.342C1276.14 162.075 1280.07 161.865 1280.86 159.033L1284.7 145.145C1285.23 143.226 1287.73 142.749 1288.93 144.339V144.339C1289.94 145.689 1292 145.593 1292.89 144.153L1300.15 132.368C1301.72 129.817 1305.56 130.301 1306.45 133.162V133.162C1307.34 136.015 1311.17 136.506 1312.74 133.968L1317.43 126.425C1317.68 126.032 1317.87 125.608 1317.99 125.164L1321.31 113.621C1321.92 111.477 1323.88 110 1326.11 110H1327.9H1330.31C1332.48 110 1334.41 111.408 1335.07 113.481L1337.31 120.503C1337.94 122.492 1340.66 122.738 1341.64 120.896V120.896C1342.49 119.297 1344.75 119.215 1345.72 120.748L1351.68 130.198C1352.59 131.651 1354.19 132.532 1355.91 132.532H1356.11C1357.73 132.532 1359.26 133.323 1360.19 134.652L1365.79 142.592C1366.73 143.921 1368.25 144.712 1369.88 144.712H1377.2C1377.93 144.712 1378.59 144.291 1378.9 143.631V143.631C1379.55 142.269 1381.45 142.173 1382.23 143.464L1384.05 146.487C1384.31 146.923 1384.49 147.407 1384.56 147.911L1391.39 196.201C1391.48 196.785 1391.66 197.349 1391.94 197.868L1403.37 219.123C1403.55 219.45 1403.76 219.756 1404.01 220.033V220.033C1406.77 223.138 1411.9 221.485 1412.33 217.354L1413.79 203.264C1414.05 200.79 1416.13 198.91 1418.62 198.91V198.91C1420.01 198.91 1421.33 198.314 1422.25 197.272L1426.15 192.861C1427.54 191.292 1430.03 191.441 1431.22 193.164L1432.84 195.511C1433.37 196.264 1434.48 196.253 1434.99 195.49L1435.13 195.276C1435.54 194.66 1436.43 194.612 1436.9 195.182V195.182C1437.23 195.581 1437.79 195.696 1438.25 195.458L1441 194.038" stroke="url(#paint1_linear_4557_151866)"/>
</g>
<defs>
<linearGradient id="paint0_linear_4557_151866" x1="1" y1="221" x2="1441" y2="221" gradientUnits="userSpaceOnUse">
<stop stop-color="#979797"/>
<stop offset="0.241" stop-color="#D9D9D9"/>
<stop offset="0.811" stop-color="#D9D9D9"/>
<stop offset="1" stop-color="#979797"/>
</linearGradient>
<linearGradient id="paint1_linear_4557_151866" x1="1" y1="300" x2="1441" y2="300" gradientUnits="userSpaceOnUse">
<stop stop-color="#48559B"/>
<stop offset="0.24375" stop-color="#DBE1FF"/>
<stop offset="0.778472" stop-color="#DBE1FF"/>
<stop offset="1" stop-color="#48559B"/>
</linearGradient>
</defs>
</svg>
